<?xml version="1.0" standalone="yes"?>
<svg xmlns="http://www.w3.org/2000/svg" width="554" height="554">
<path style="fill:#48a13b; stroke:none;" d="M0 0L0 554L554 554L554 0L0 0z"/>
<path style="fill:#232022; stroke:none;" d="M114 138L143 138L161 138C166.393 138 175.086 139.631 179.941 136.972C185.184 134.101 185.185 126.024 179.941 123.18C175.153 120.583 167.328 123.194 162 122.961C148.655 122.377 135.403 122 122 122C115.611 122 108.181 121.385 103.214 126.228C98.0165 131.294 98.0004 138.279 98 145C97.9993 156.701 98.9813 168.36 99 180C99.0088 185.46 97.4159 193.983 100.179 198.891C102.961 203.833 110.039 203.833 112.821 198.891C115.345 194.408 114 186.973 114 182L114 165L114 138M440 138L440 188C440 193.515 439.196 202.237 447 202.583C456.154 202.988 455 192.046 455 186C455 172.648 456 159.387 456 146C456 139.354 456.674 132.362 451.775 127.109C446.806 121.779 439.72 122 433 122C419.272 121.999 405.668 121.974 392 122.91C386.596 123.281 378.954 120.798 374.109 123.461C368.959 126.29 368.988 133.939 374.109 136.821C379.011 139.581 387.546 138 393 138L411 138L440 138M145 175L145 380L167 380L167 175L145 175M180 175L180 359L193 359L193 175L180 175M205 175L205 359L219 359L219 175L205 175M238.318 175.742C234.804 177.534 236 183.78 236 187L236 220L236 318L236 345C236 348.406 235.069 353.544 236.603 356.683C239.052 361.691 252.65 360.554 256.721 358.436C260.639 356.398 259.994 350.703 260 347L260 314L260 221L260 193C260 188.601 260.762 183.306 259.427 179.059C257.635 173.352 242.914 173.399 238.318 175.742M272 175L272 359L293 359L293 175L272 175M305 175L305 359L318 359L318 175L305 175M331.742 176.028C329.018 178.232 330 183.938 330 187L330 219L330 332C330 338.331 329.915 344.669 330.004 351C330.035 353.237 329.79 356.393 331.742 357.972C334.136 359.909 339.139 359.006 342 359C344.415 358.995 347.56 359.388 349.682 357.972C352.937 355.8 352 350.341 352 347L352 315L352 200C352 194.337 352.102 188.662 351.995 183C351.949 180.516 352.002 177.576 349.682 176.028C347.119 174.317 342.916 174.999 340 175C337.571 175.001 333.784 174.376 331.742 176.028M365 175L365 359L379 359L379 175L365 175M390 175L390 380L410 380L410 175L390 175M103.109 352.029C99.4068 354.084 99.0566 358.22 99.0039 362C98.9066 368.97 99.4848 376.076 98.5756 383C97.1763 393.657 96.4643 407.403 98.4676 418C99.3044 422.426 101.267 426.645 105.043 429.297C109.445 432.389 114.893 432 120 432L148 432L171 432C174.609 431.994 178.789 432.344 181.566 429.566C185.79 425.343 183.984 418.097 177.995 417.148C164.044 414.937 148.136 417 134 417C129.281 417 120.39 418.689 116.318 415.972C112.716 413.569 114 406.691 114 403L114 364C113.997 358.15 111.768 347.221 103.109 352.029M440 417L411 417L393 417C387.638 417 377.934 415.149 373.228 418.028C368.126 421.149 370.312 428.986 375.105 431.142C380.051 433.366 387.679 432 393 432L433 432C439.373 432 446.678 432.493 451.61 427.606C456.417 422.842 456 416.213 456 410C456 397.066 456.801 383.846 455.285 371C454.713 366.15 456.378 359.452 453.972 355.059C451.201 350 443.969 350.152 441.179 355.109C438.537 359.803 440 367.785 440 373L440 390L440 417z"/>
</svg>
